{"title":"The Whistleblowers S01","uid":11976297,"size":2289480457,"categoryP":"video","categoryS":"tv_shows","magnet":"?xt=urn:btih:4ad853f1e7ce084e7c2a2061753f9a8f588f9aa1&amp;dn=The+Whistleblowers+S01&amp;tr=udp%3A%2F%2Ftracker.openbittorrent.com%3A80&amp;tr=udp%3A%2F%2Fopen.demonii.com%3A1337&amp;tr=udp%3A%2F%2Ftracker.coppersurfer.tk%3A6969&amp;tr=udp%3A%2F%2Fexodus.desync.com%3A6969","seeders":2,"leechers":1,"uploader":"RedBaron58","files":6,"time":1433024260,"description":"The Whistleblowers (2007) S01 DVDRip x264 mp4\n  &lt;a href=&quot;\nhttp://www.imdb.com/title/tt1030744/&quot; rel=&quot;nofollow&quot; target=&quot;_NEW&quot;&gt;\nhttp://www.imdb.com/title/tt1030744/&lt;/a&gt;\n\n\n\nThank you for your kind comments and feedback on my other torrents, your feedback is welcome.\n\n\nAbout the Series:\nBen Graham (RICHARD COYLE) and Alisha Cole (INDIRA VARMA) are two lawyers about to witness something \nthat will take them into a world of few moral certainties. They observe a miscarriage of justice on \ntheir own doorstep and, instead of giving in to the temptation to look the other way, they speak out. \nHowever, by trying to do the right thing, Ben and Alisha suddenly find themselves on the other side \nof the law and enemies of the state.\n\n\nI hope you enjoy.\n\n\nTechnical: (All episodes are encoded to the same settings)\n\nGeneral\nComplete name                            : H:The Whistleblowers S01The Whistleblowers S01E01 Ghosts x264 RB58.mp4\nFormat                                   : MPEG-4\nFormat profile                           : Base Media / Version 2\nCodec ID                                 : mp42\nFile size                                : 364 MiB\nDuration                                 : 46mn 28s\nOverall bit rate                         : 1 095 Kbps\nEncoded date                             : UTC 2013-06-14 20:09:18\nTagged date                              : UTC 2013-06-14 20:18:27\nWriting application                      : HandBrake 0.9.8 2012071700\n\nVideo\nID                                       : 1\nFormat                                   : AVC\nFormat/Info                              : Advanced Video Codec\nFormat profile                           : &lt;a class=&quot;__cf_email__&quot; href=&quot;/cdn-cgi/l/email-protection&quot; data-cfemail=&quot;2f624e46416f631c011f&quot;&gt;[email&amp;#160;protected]&lt;/a&gt;&lt;script data-cfhash='f9e31' type=&quot;text/javascript&quot;&gt;\n/* &lt;![CDATA[ */!function(){try{var t=&quot;currentScript&quot;in document?document.currentScript:function(){for(var t=document.getElementsByTagName(&quot;script&quot;),e=t.length;e--;)if(t[e].getAttribute(&quot;data-cfhash&quot;))return t[e]}();if(t&amp;&amp;t.previousSibling){var e,r,n,i,c=t.previousSibling,a=c.getAttribute(&quot;data-cfemail&quot;);if(a){for(e=&quot;&quot;,r=parseInt(a.substr(0,2),16),n=2;a.length-n;n+=2)i=parseInt(a.substr(n,2),16)^r,e+=String.fromCharCode(i);e=document.createTextNode(e),c.parentNode.replaceChild(e,c)}t.parentNode.removeChild(t);}}catch(u){}}()/* ]]&gt; */&lt;/script&gt;\nFormat settings, CABAC                   : Yes\nFormat settings, ReFrames                : 4 frames\nCodec ID                                 : avc1\nCodec ID/Info                            : Advanced Video Coding\nDuration                                 : 46mn 28s\nBit rate mode                            : Variable\nBit rate                                 : 900 Kbps\nWidth                                    : 718 pixels\nHeight                                   : 576 pixels\nDisplay aspect ratio                     : 16:9\nFrame rate mode                          : Constant\nFrame rate                               : 25.000 fps\nColor space                              : YUV\nChroma subsampling                       : 4:2:0\nBit depth                                : 8 bits\nScan type                                : Progressive\nBits/(Pixel*Frame)                       : 0.087\nStream size                              : 299 MiB (82%)\nWriting library                          : x264 core 120\nEncoding settings                        : cabac=1 / ref=1 / deblock=1:0:0\nEncoded date                             : UTC 2013-06-14 20:09:18\nTagged date                              : UTC 2013-06-14 20:18:27\nColor primaries                          : BT.601 NTSC\nTransfer characteristics                 : BT.709\nMatrix coefficients                      : BT.601\n\nAudio\nID                                       : 2\nFormat                                   : AC-3\nFormat/Info                              : Audio Coding 3\nMode extension                           : CM (complete main)\nFormat settings, Endianness              : Big\nCodec ID                                 : ac-3\nDuration                                 : 46mn 28s\nBit rate mode                            : Constant\nBit rate                                 : 192 Kbps\nChannel(s)                               : 2 channels\nChannel positions                        : Front: L R\nSampling rate                            : 48.0 KHz\nBit depth                                : 16 bits\nCompression mode                         : Lossy\nDelay relative to video                  : 80ms\nStream size                              : 63.8 MiB (18%)\nLanguage                                 : English\nEncoded date                             : UTC 2013-06-14 20:09:18\nTagged date                              : UTC 2013-06-14 20:18:26","torrent":{"xt":"urn:btih:4ad853f1e7ce084e7c2a2061753f9a8f588f9aa1","amp;dn":"The+Whistleblowers+S01","amp;tr":["udp%3A%2F%2Ftracker.openbittorrent.com%3A80","udp%3A%2F%2Fopen.demonii.com%3A1337","udp%3A%2F%2Ftracker.coppersurfer.tk%3A6969","udp%3A%2F%2Fexodus.desync.com%3A6969"],"infoHash":"4ad853f1e7ce084e7c2a2061753f9a8f588f9aa1","infoHashBuffer":{"type":"Buffer","data":[74,216,83,241,231,206,8,78,124,42,32,97,117,63,154,143,88,143,154,161]},"announce":[],"urlList":[]}}